<svg xmlns="http://www.w3.org/2000/svg" xmlns:xlink="http://www.w3.org/1999/xlink">

<symbol viewBox="0 0 16 16" id="github">
<path d="M8 0C3.58 0 0 3.58 0 8c0 3.54 2.29 6.53 5.47 7.59.4.07.55-.17.55-.38 0-.19-.01-.82-.01-1.49-2.01.37-2.53-.49-2.69-.94-.09-.23-.48-.94-.82-1.13-.28-.15-.68-.52-.01-.53.63-.01 1.08.58 1.23.82.72 1.21 1.87.87 2.33.66.07-.52.28-.87.51-1.07-1.78-.2-3.64-.89-3.64-3.95 0-.87.31-1.59.82-2.15-.08-.2-.36-1.02.08-2.12 0 0 .67-.21 2.2.82.64-.18 1.32-.27 2-.27.68 0 1.36.09 2 .27 1.53-1.04 2.2-.82 2.2-.82.44 1.1.16 1.92.08 2.12.51.56.82 1.27.82 2.15 0 3.07-1.87 3.75-3.65 3.95.29.25.54.73.54 1.48 0 1.07-.01 1.93-.01 2.2 0 .21.15.46.55.38A8.013 8.013 0 0016 8c0-4.42-3.58-8-8-8z"/>
</symbol>

<symbol viewBox="0 0 16 16" id="linkedin">
<path d="M14.5455 0H1.45455C0.650909 0 0 0.650909 0 1.45455V14.5455C0 15.3491 0.650909 16 1.45455 16H14.5455C15.3491 16 16 15.3491 16 14.5455V1.45455C16 0.650909 15.3491 0 14.5455 0ZM5.05746 13.0909H2.912V6.18764H5.05746V13.0909ZM3.96291 5.20073C3.27127 5.20073 2.712 4.64 2.712 3.94982C2.712 3.25964 3.272 2.69964 3.96291 2.69964C4.65236 2.69964 5.21309 3.26036 5.21309 3.94982C5.21309 4.64 4.65236 5.20073 3.96291 5.20073ZM13.0938 13.0909H10.9498V9.73382C10.9498 8.93309 10.9353 7.90327 9.83491 7.90327C8.71855 7.90327 8.54691 8.77527 8.54691 9.67564V13.0909H6.40291V6.18764H8.46109V7.13091H8.49018C8.77673 6.58836 9.47636 6.016 10.52 6.016C12.6924 6.016 13.0938 7.44582 13.0938 9.30473V13.0909V13.0909Z"/>
</symbol>

<symbol viewBox="0 0 16 16" id="twitter">
<path d="M9.332 6.925 14.544 1h-1.235L8.783 6.145 5.17 1H1l5.466 7.78L1 14.993h1.235l4.78-5.433 3.816 5.433H15L9.332 6.925ZM7.64 8.848l-.554-.775L2.68 1.91h1.897l3.556 4.975.554.775 4.622 6.466h-1.897L7.64 8.848Z"/>
</symbol>

<symbol viewBox="0 0 16 16" id="rss">
<path d="M2.002 2.725a.718.718 0 0 1 .716.716v2.014h-.06c-.595 0-1.19.332-1.192.726 0 .414.22.716.626.716.626 0 .567.716.626.716.626 0 1.052.716 1.052.716h.626c-.706 0-1.353-.596-1.353-1.336 0-.786 0-1.7 0-2.414 0-.398-.045-.742-.332-1.06C2.653 2.725 2.1 2.725 2.002 2.725ZM3.92 4.73c-.706 0-1.336.596-1.336 1.336 0 .786 0 1.7 0 2.414 0 .398-.045.742-.332 1.06-.057.058-.18.716-.626.716-.626 0-1.052.716-1.052.716h.626c.706 0 1.353-.596 1.353-1.336 0-.786 0-1.7 0-2.414 0-.398.045-.742.332-1.06.057-.058.18-.716.626-.716.626 0 1.052-.716 1.052-.716h-.626ZM6.986 6.74c-.706 0-1.336.596-1.336 1.336 0 .786 0 1.7 0 2.414 0 .398-.045.742-.332 1.06-.057.058-.18.716-.626.716-.626 0-1.052.716-1.052.716h.626c.706 0 1.353-.596 1.353-1.336 0-.786 0-1.7 0-2.414 0-.398.045-.742.332-1.06.057-.058.18-.716.626-.716.626 0 1.052-.716 1.052-.716h-.626Z"/>
</symbol>

</svg>